<svg viewBox="0 0 128 128" xmlns="http://www.w3.org/2000/svg"><path d="M84.5 6.5C75.6 1.8 65.1.1 55 .4c-7.9.2-15.7 1.9-23.1 4.8C22.2 9 13.5 15 7.2 23c-5.6 7.2-9 16.1-10.1 25.3-.8 7.5-.1 15.2 2.3 22.4 2.5 8 7.3 15.2 13.6 20.9 5.7 5.2 12.7 9 20.2 11.1 5.8 1.6 11.9 2.2 17.9 2 5.3-.1 10.6-.6 15.8-1.8 9.1-2.1 17.7-6.4 24.6-12.6 6.3-5.6 11.2-12.6 14.4-20.4 3.1-7.5 4.7-15.6 5-23.8.3-9-1.5-18.2-5.4-26.4-3.3-7-8.4-13.1-15-17.2zm-4 84.8c-3.1 4.9-7.6 8.9-12.8 11.6-5.8 3-12.3 4.3-18.8 4.3-7.6-.1-15.1-2.1-21.6-6-6.2-3.7-11.2-9.1-14.5-15.5-3.6-6.9-5.1-14.8-4.7-22.5.3-7.4 2.5-14.8 6.4-21.1 3.8-6.2 9.3-11.3 15.8-14.6C36.5 24 43.7 22.1 51 22c7.8-.1 15.6 1.8 22.4 5.6 6.4 3.6 11.7 8.9 15.3 15.2 3.5 6.1 5.4 13.1 5.7 20.2.4 7.7-1.3 15.5-4.9 22.3-1.7 3.2-4 6.1-6.6 8.5l-2.4-2.5c4.1-4 7.2-9 9-14.5 2-6 2.6-12.6 1.6-18.9-1.1-7-4.1-13.6-8.5-19-4.2-5.2-9.7-9.2-15.9-11.7-6.9-2.8-14.5-3.7-21.9-2.7-7.2 1-14.1 4-19.6 8.7-5.6 4.8-9.7 11.1-11.8 18.1-2.1 6.8-2.4 14.2-.9 21.2 1.7 7.5 5.4 14.5 10.7 19.9 5.5 5.6 12.5 9.5 20.1 11 6.7 1.3 13.7.8 20.1-1.5 6.2-2.2 11.8-6 16-10.9l2.5 2.4z" fill="currentColor"/></svg>
